<?xml version="1.0" encoding="UTF-8" standalone="no"?>
<svg
   xmlns:dc="http://purl.org/dc/elements/1.1/"
   xmlns:cc="http://creativecommons.org/ns#"
   xmlns:rdf="http://www.w3.org/1999/02/22-rdf-syntax-ns#"
   xmlns:svg="http://www.w3.org/2000/svg"
   xmlns="http://www.w3.org/2000/svg"
   viewBox="0 0 4000 4000"
   height="4000"
   width="4000"
   xml:space="preserve"
   id="svg2"
   version="1.1"><metadata
     id="metadata8"><rdf:RDF><cc:Work
         rdf:about=""><dc:format>image/svg+xml</dc:format><dc:type
           rdf:resource="http://purl.org/dc/dcmitype/StillImage" /></cc:Work></rdf:RDF></metadata><defs
     id="defs6" /><g
     transform="matrix(1.3333333,0,0,-1.3333333,0,4000)"
     id="g10"><g
       transform="scale(0.1)"
       id="g12"><g
         transform="scale(1.84049)"
         id="g14"><path
           id="path16"
           style="fill:#fcf8ed;fill-opacity:1;fill-rule:evenodd;stroke:none"
           d="M 0.0021224,16300 H 16300 V 0 H 0.0021224 v 16300" /></g><g
         transform="scale(1.61205)"
         id="g18"><path
           id="path20"
           style="fill:#191611;fill-opacity:1;fill-rule:nonzero;stroke:none"
           d="m 11526.4,14524.9 c 91.7,-47.9 171.2,-113.5 232.3,-193.6 34.4,-45.1 62.1,-93.6 82.7,-144.3 H 6768.26 c 20.66,50.7 48.32,99.2 82.75,144.3 61.1,80.1 140.57,145.7 232.25,193.6 64.46,443.8 286.66,856.3 636.89,1176 421.39,384.6 988.56,599.1 1584.63,599.1 596.13,0 1163.32,-214.5 1584.72,-599.1 350.2,-319.7 572.5,-732.2 636.9,-1176" /></g><g
         transform="scale(1.57897)"
         id="g22"><path
           id="path24"
           style="fill:#fbf4e5;fill-opacity:1;fill-rule:evenodd;stroke:none"
           d="M 9499.82,16300 14842.1,13215.6 V 5360.09 L 9499.82,2275.67 4157.48,5360.09 V 13215.6 L 9499.82,16300" /></g><g
         transform="scale(1.58684)"
         id="g26"><path
           id="path28"
           style="fill:#191611;fill-opacity:1;fill-rule:nonzero;stroke:none"
           d="M 14698,13109.7 9452.66,16138.2 4207.22,13109.7 V 5373.94 L 9452.66,2345.47 14698,5373.94 V 13109.7 Z M 9487.51,16279.8 14838.8,13190.3 V 5293.02 C 13043.5,4256.31 11248.2,3219.53 9452.66,2183.33 7657.02,3219.53 5861.78,4256.31 4066.46,5293.02 v 7897.28 c 1795.57,1036.3 3590.81,2073.1 5386.2,3109.7 l 34.91,-20.2 h -0.06" /></g><g
         transform="scale(1.54322)"
         id="g30"><path
           id="path32"
           style="fill:#191611;fill-opacity:1;fill-rule:evenodd;stroke:none"
           d="M 9719.9,16300 4580.83,13333 V 5673.09 l 5139.07,-2967.05 5139,2967.05 V 13333 l -5139,2967" /></g><g
         transform="scale(1.26857)"
         id="g34"><path
           id="path36"
           style="fill:#fcf8ed;fill-opacity:1;fill-rule:evenodd;stroke:none"
           d="m 7348.66,7793.1 c 1350.42,179.42 2869.34,280.24 4475.64,280.24 1606.3,0 3125.2,-100.82 4475.7,-280.32 -1439.4,280.4 -2957.3,420.64 -4475.7,420.64 -1518.4,0 -3036.3,-140.24 -4475.64,-420.56 v 0" /></g><g
         transform="scale(1.43647)"
         id="g38"><path
           id="path40"
           style="fill:#fcf8ed;fill-opacity:1;fill-rule:evenodd;stroke:none"
           d="m 10442.2,16300 -82,-3505.8 -387.27,3485.3 223.87,-3499.7 -689.52,3438.4 528.02,-3466.8 -986.58,3365.1 828.14,-3407.5 -1276.11,3266.3 1121.99,-3322.4 -1555.9,3142.7 1407.27,-3211.9 -1823.92,2995 1681.76,-3076.9 -2077.87,2824.5 1943.59,-2918.6 -2316.24,2632.7 2190.65,-2738.3 -2536.94,2421 2420.96,-2536.9 -2738.27,2190.6 2632.87,-2316.2 -2918.79,1943.6 2824.61,-2078 -3076.96,1681.8 2995.09,-1823.8 -3211.97,1407.2 3142.7,-1555.9 -3322.46,1122 3266.21,-1276.1 -3407.45,828.1 3365.12,-986.5 -3466.74,527.9 3438.41,-689.5 -3499.72,223.9 3485.45,-387.2 -3505.93,-82.1 3505.86,-81.9 -3485.36,-387.3 3499.63,223.9 -3438.33,-689.62 3466.8,528.12 -3286.17,-963.49 h 16.26 l 3312.31,804.99 -2060.53,-804.99 h 189.18 L 8705.31,10196.6 7390.7,9545.71 h 237.59 L 8774.58,10048 7949.85,9545.71 h 247.76 l 658.91,360.18 -489.54,-360.18 h 244.49 l 339.16,225.83 -256.67,-225.83 h 236.9 l 125.24,100.17 -95.65,-100.17 H 11924 l -95.7,100.24 125.3,-100.24 h 236.9 l -256.8,225.9 339.2,-225.9 h 244.6 l -489.7,360.18 659.1,-360.18 h 247.7 l -824.8,502.29 1146.4,-502.29 h 237.6 l -1314.8,650.89 1927.6,-650.89 h 189.2 l -2060.6,804.99 3312.4,-804.99 h 16.3 l -3286.4,963.49 3466.8,-528.05 -3438.4,689.55 3499.7,-223.8 -3485.4,387.2 3505.9,82 -3505.8,82 3485.3,387.3 -3499.7,-223.9 3438.4,689.5 -3466.8,-528 3365.1,986.6 -3407.5,-828.2 3266.3,1276.1 -3322.4,-1122 3142.7,1556 -3211.9,-1407.3 2995,1823.8 -3077,-1681.7 2824.6,2077.9 -2918.7,-1943.6 2632.8,2316.2 -2738.2,-2190.6 2420.9,2536.9 -2536.9,-2420.9 2190.6,2738.2 -2316.2,-2632.8 1943.6,2918.7 -2078,-2824.6 1681.8,3077 -1823.9,-2995.1 1407.3,3212 -1555.9,-3142.7 1121.9,3322.4 -1276,-3266.3 828.1,3407.6 -986.6,-3365.2 528.1,3466.8 -689.6,-3438.3 223.9,3499.6 -387.2,-3484.9 -82,3505.4" /></g><g
         transform="scale(1.62794)"
         id="g42"><path
           id="path44"
           style="fill:#fcf8ed;fill-opacity:1;fill-rule:evenodd;stroke:none"
           d="m 11263.2,14506.2 c 84.7,-48.4 158,-114.7 214.4,-195.6 77.4,-111.2 118,-242.7 118,-378.2 v -491.9 c 0,-121 -32,-239.1 -94.5,-342.7 -54.7,-90.8 -130.1,-165.9 -219.7,-221.1 V 8376.16 H 7146.75 v 4500.54 c -89.62,55.2 -165.12,130.3 -219.79,221.1 -62.47,103.7 -94.47,221.7 -94.47,342.7 v 491.9 c 0,135.5 40.6,267 118,378.1 56.39,81 129.68,147.3 214.32,195.7 59.4,448.5 264.44,865.3 587.49,1188.3 388.71,388.8 911.89,605.5 1461.72,605.5 549.9,0 1073.08,-216.7 1461.78,-605.5 323.1,-323 528.1,-739.8 587.5,-1188.3 h -0.1" /></g><g
         transform="scale(1.59594)"
         id="g46"><path
           id="path48"
           style="fill:#191611;fill-opacity:1;fill-rule:evenodd;stroke:none"
           d="m 7616.97,8871.03 v 4475.17 c -19.05,5.7 -36.4,11.7 -52.32,17.8 -29.82,11.3 -57.08,24 -81.77,37 -58.52,30.9 -105.02,75.1 -137.04,128.1 -32.14,53.4 -49.43,115.1 -49.43,181 v 501.7 c 0,73.5 22.12,142 61.72,199 39.41,56.5 96.11,101.2 165.54,127.5 31.27,11.8 62.6,23.4 94.12,34.6 14.22,470.3 210.65,894.7 521.07,1205.2 322.44,322.4 767.89,521.9 1259.95,521.9 492,0 937.49,-199.5 1259.99,-521.9 310.4,-310.5 506.8,-734.9 521,-1205.2 31.5,-11.2 62.9,-22.8 94.1,-34.6 69.5,-26.3 126.2,-71 165.5,-127.5 39.7,-57 61.8,-125.5 61.8,-199 v -501.7 c 0,-65.8 -17.3,-127.6 -49.5,-181 -31.9,-53 -78.4,-97.2 -137,-128.1 -24.7,-13 -52,-25.7 -81.7,-37 -15.9,-6.1 -33.4,-12.1 -52.4,-17.8 V 8871.03 H 7616.97 v 0" /></g><g
         transform="scale(1.57656)"
         id="g50"><path
           id="path52"
           style="fill:#fcf8ed;fill-opacity:1;fill-rule:evenodd;stroke:none"
           d="m 8380.52,15830.4 c -262.91,-263 -435,-616.8 -464.94,-1010.4 62.29,19.3 124.96,37.5 188.01,54.5 79.35,444.5 331.23,862.5 744.47,1071.7 -474.77,-588.2 131.36,-957.1 621.35,-769 451.49,173.3 548.89,757.1 19.47,966.1 931.82,-110.5 1372.82,-641 1573.52,-1027.7 -74.1,274.4 -219.2,519.6 -414.3,714.8 -290.1,290.1 -690.98,469.6 -1133.78,469.6 -442.74,0 -843.67,-179.5 -1133.8,-469.6 z m -794.13,-1922.5 c 596.99,234.7 1261.79,352.2 1926.21,352.4 597.8,0.2 1196,-94.6 1744.9,-284.3 -228.6,100.7 -467.3,188.9 -765.2,250.2 321.7,0.5 617.8,-61.9 913.3,-167.8 -275.7,128.4 -550.6,242.8 -913.3,317.5 321.7,0.5 617.8,-62 913.3,-167.8 -275.7,128.4 -550.6,242.7 -913.3,317.4 321.7,0.6 617.8,-61.9 913.3,-167.8 -275.7,128.4 -550.6,242.8 -913.3,317.5 301.4,0.5 580.2,-54.3 857.2,-148.2 -2.5,1 -4.9,2 -7.4,3 -580.1,219.8 -1203.7,329.7 -1827.78,329.7 -624.08,0 -1247.72,-109.9 -1827.78,-329.7 -31.14,-11.8 -56.39,-31.6 -73.64,-56.4 -17,-24.4 -26.51,-54.4 -26.51,-87.1 v -478.6 z m 1926.21,152.8 c -547.9,-0.1 -1095.54,-82.9 -1601.71,-248.2 V 8897.41 h 3206.81 v 4915.19 c -507.1,165.6 -1056.1,248.3 -1605.1,248.1 v 0" /></g><g
         transform="scale(1.35998)"
         id="g54"><path
           id="path56"
           style="fill:#c24745;fill-opacity:1;fill-rule:evenodd;stroke:none"
           d="m 9170.72,11337.4 v -927.2 h 451.11 c 381.47,274.5 865.37,445.9 1371.97,682.2 1233.7,575.3 1710.2,732.6 1894.5,1247.4 v 1386.1 C 12431.2,12982.3 11605.8,12629 10821.5,12281.1 9815.29,11835 9368.37,11671 9170.72,11337.4 Z m 2698.68,4906.2 c -292.8,-150.1 -596.4,-279.6 -875.6,-409.8 -737.9,-344.1 -1427.85,-550.7 -1823.08,-1139.1 v 1317.5 c 586.77,191.6 1221.68,287.6 1856.78,287.7 282.1,0.1 564.1,-18.7 841.9,-56.3 v 0" /></g><g
         transform="scale(1.34036)"
         id="g58"><path
           id="path60"
           style="fill:#191611;fill-opacity:1;fill-rule:evenodd;stroke:none"
           d="m 13090,10562.5 v 964.7 c -259.6,-422.3 -635.4,-721.3 -1055.6,-964.7 z m -3798.1,3368.8 v -1414.2 c 403.77,601.2 1108.7,812.1 1862.6,1163.8 1260.3,587.7 1747.2,748.6 1935.5,1274.6 v 1329.8 c -15.2,4.9 -30.5,9.8 -45.8,14.7 -474.9,-711.2 -1290,-1060.5 -2065.7,-1404.6 -1028.05,-455.9 -1484.71,-623.3 -1686.6,-964.1 v 0" /></g><g
         transform="scale(1.33217)"
         id="g62"><path
           id="path64"
           style="fill:#fcf8ed;fill-opacity:1;fill-rule:evenodd;stroke:none"
           d="m 11869,15617.9 h 180.3 V 10529.6 H 11869 v 5088.3 z m -279,682.1 c 708,-212 740.1,-482.9 740.1,-1041 v -4704.2 l 484.5,-25.2 v 5549.5 c -442.9,142 -852.3,219.4 -1224.6,220.9" /></g><g
         transform="scale(1.50434)"
         id="g66"><path
           id="path68"
           style="fill:#fbf4e5;fill-opacity:1;fill-rule:evenodd;stroke:none"
           d="M 3642.18,10281.5 H 16300 V 6104.42 c -3842.6,1284.88 -8815.31,1284.88 -12657.82,0 v 4177.08 0" /></g><g
         transform="scale(1.5112)"
         id="g70"><path
           id="path72"
           style="fill:#191611;fill-opacity:1;fill-rule:nonzero;stroke:none"
           d="M 16152.3,10161.2 H 3699.41 V 6178.55 c 1897.53,620.83 4062.45,931.18 6226.44,931.18 2163.95,0 4328.95,-310.35 6226.45,-931.18 V 10161.2 Z M 3625.65,10308.7 H 16299.8 c 0,-1444.79 0.2,-2889.48 -0.1,-4334.16 l -97,32.49 c -1904.5,636.84 -4090.2,955.2 -6276.85,955.2 -2186.62,0 -4372.34,-318.36 -6276.86,-955.2 l -97.1,-32.49 v 4334.16 h 73.75 0.01" /></g><g
         transform="scale(1.51118)"
         id="g74"><path
           id="path76"
           style="fill:#191611;fill-opacity:1;fill-rule:evenodd;stroke:none"
           d="m 16300,5974.59 -792.8,-212.42 21,530.45 698.1,-215.86 73.7,-102.17 z m -12748.08,0 792.78,-212.42 -20.98,530.45 -698.05,-215.86 -73.76,-102.17 h 0.01" /></g><g
         transform="scale(1.461)"
         id="g78"><path
           id="path80"
           style="fill:#191611;fill-opacity:1;fill-rule:evenodd;stroke:none"
           d="m 16029.7,9691.24 c 22.9,-244.56 22.9,-475.77 0,-716.97 -22.9,244.96 -22.9,475.15 0,716.97 z m -582.8,230.87 c 13.3,-414.24 19.4,-818.48 19.4,-1222.45 0,-403.9 -6.1,-806.64 -19.4,-1217.46 -13.2,415.81 -19.3,819.44 -19.3,1221.84 0,402.67 6.1,805.06 19.3,1218.07 z m -574.3,-283.37 c 13.2,-297.06 19.3,-586.38 19.3,-875.63 0,-289.26 -6.1,-577.35 -19.3,-871.32 -13.3,297.74 -19.3,586.99 -19.3,875.36 0,288.36 6,576.04 19.3,871.59 z m -656.4,154.96 c 13.2,-328.95 19.3,-649.76 19.3,-969.68 0,-320.19 -6.1,-639.83 -19.3,-966.25 -13.3,329.84 -19.3,650.1 -19.3,969.4 0,319.24 6,638.81 19.3,966.53 z m -593.7,179.33 c 12.1,-127.17 18.1,-251.2 18.1,-374.88 0,-124.02 -6,-247.78 -18.1,-374.26 -13.3,127.79 -20.5,251.47 -20.5,375.22 0,123.68 7.2,247.09 20.5,373.92 z m 0,-1206.84 c 12.1,-163.11 18.1,-321.77 18.1,-479.54 0,-158.04 -6,-315.81 -18.1,-476.38 -13.3,163.38 -20.5,322.38 -20.5,479.81 0,157.83 7.2,314.92 20.5,476.11 z m -657.6,1171.87 c 13.3,-349.01 19.3,-688.85 19.3,-1028.75 0,-339.56 -6,-678.85 -19.3,-1025.94 -13.3,349.28 -19.3,689.18 -19.3,1028.13 0,339.22 6,678.51 19.3,1026.56 z m -1218.7,-603.91 c 118.2,-140.24 228.2,-277.48 330.6,-415.81 102.7,-138.74 199.1,-279.6 292,-423.61 -118.2,145.58 -227.9,286.38 -330.6,424.91 -102.4,137.99 -199.1,274.88 -292,414.51 z m -697.5,-501.09 c 37.5,-152.43 68.9,-301.51 93,-449.56 24.1,-148.66 43.4,-297.39 55.5,-449.55 -38.6,153.11 -70,301.78 -94.2,450.51 -24,148.05 -42.2,296.44 -54.3,448.6 z m -460.9,1115.6 c 12.1,-329.91 18.2,-651.06 18.2,-972.2 0,-321.15 -6.1,-642.65 -18.2,-971.6 -13.3,329.29 -20.4,650.45 -20.4,971.6 0,321.14 7.1,642.29 20.4,972.2 z m 596.1,-187.74 c 24.1,-180.22 24.1,-351.13 0,-531.08 -22.9,180.22 -22.9,351.47 0,531.08 z m -1832.91,186.51 c 12.12,-331.48 18.14,-654.21 18.14,-977.2 0,-323.07 -6.02,-645.8 -18.14,-977.55 -13.21,330.86 -20.46,653.86 -20.46,976.93 0,323 7.25,646.34 20.46,977.82 z M 6120.9,8714.03 c 37.39,-169.33 68.74,-333.95 92.91,-498.9 24.1,-164.34 43.45,-328.68 55.5,-498.56 -38.59,165.84 -70.02,329.22 -94.12,493.83 -24.17,165.3 -42.21,331.76 -54.29,503.63 z m 1330.91,1025.6 c 22.93,-189.6 22.93,-370.16 0,-561.05 -24.16,189.32 -24.16,370.22 0,561.05 z m -597.26,191.58 c 13.28,-360.57 19.3,-711.7 19.3,-1062.83 0,-351.2 -6.02,-703.22 -19.3,-1065.03 -13.31,358.66 -19.33,710.41 -19.33,1062.22 0,352.02 6.02,704.18 19.33,1065.57 z m 462.08,-1183.44 c 37.44,-159 68.79,-314.02 92.95,-468.58 24.1,-154.34 43.47,-309.31 55.51,-468.92 -38.6,157.08 -70.02,311.15 -94.11,465.77 -24.16,154.62 -42.23,311.16 -54.35,471.73 z m 1438.33,92.48 c 10.88,-124.64 16.91,-246.48 16.91,-367.7 0,-121.49 -6.09,-243.39 -16.91,-368.65 -12.11,124.03 -18.14,245.52 -18.14,367.08 0,121.49 6.03,243.67 18.14,369.27 z m -51.88,916.01 c 22.93,-181.86 22.93,-354.62 0,-537.37 -24.16,181.79 -24.16,354.9 0,537.37 z m -598.49,185.84 c 12.04,-341.14 18.06,-673.52 18.06,-1005.96 0,-332.37 -6.02,-665.44 -18.06,-1007.19 -13.28,340.52 -20.54,672.9 -20.54,1005.62 0,332.71 7.26,665.77 20.54,1007.53 z m -2200.87,-23.42 c -37.4,-384.87 -79.78,-761.94 -127.9,-1142.16 -48.39,-382.68 -103.79,-769.81 -166.53,-1171.25 37.42,397.4 79.48,783.57 127.9,1167.49 48.07,381.18 103.79,760.09 166.53,1145.92 z M 5055.48,8555.03 c 12.04,-150.92 18.08,-298.7 18.08,-446.47 0,-148.05 -6.04,-297.68 -18.08,-452.37 -12.08,150.31 -18.12,298.09 -18.12,446.48 0,148.39 6.04,298.02 18.12,452.36 z m -51.91,1116.84 c 24.15,-221.49 24.15,-432.99 0,-657.63 -22.91,221.21 -22.91,433.67 0,657.63 z m -598.48,219.03 c 13.29,-432.1 19.32,-852.91 19.32,-1273.99 0,-420.81 -6.03,-843.19 -19.32,-1278.44 -13.26,429.57 -19.31,850.71 -19.31,1273.44 0,422.38 6.05,845.04 19.31,1278.99 z m 545.4,-2237.79 c -98.94,-21.56 -197.9,-43.12 -295.62,-64.34 0,141.48 0,282.69 0,423.89 0,141.55 0,282.75 0,424.3 97.72,43.12 196.68,85.9 295.62,128.41 0,-152.16 0,-304.66 0,-456.47 0,-151.82 0,-303.97 0,-455.79 z m -295.62,2016.57 c 73.6,2.8 147.21,5.95 222.01,8.76 0,-227.72 0,-455.51 0,-683.23 -74.8,-25.6 -148.41,-51.27 -222.01,-76.87 0,250.24 0,500.83 0,751.34 z M 5935.1,8192.61 c 22.94,178.1 47.04,355.58 71.2,532.65 21.73,-162.15 43.43,-323.62 66.35,-484.19 -45.85,-16.29 -91.71,-32.17 -137.55,-48.46 z m 654,-522.66 c -20.53,7.53 -39.82,15.33 -59.13,23.48 -53.08,374.26 -106.4,750.99 -159.29,1129.91 -53.27,382.07 -106.17,766.39 -159.28,1153.73 6.04,3.49 12.08,7.53 18.12,11.29 4.83,2.47 7.26,5.27 9.65,8.08 0,2.53 2.42,5.36 2.42,7.76 -1.21,2.8 -2.42,5.4 -2.42,8.2 -7.25,34.7 -14.47,69.7 -21.73,104.4 -3.61,2.8 -5.97,8.2 -8.44,10.9 -2.33,2.6 -7.24,5.6 -12.07,5.6 -127.9,0 -254.59,0 -381.31,0 -4.82,0 -9.86,-2.8 -13.26,-5.9 -2.63,-2.5 -4.82,-8.2 -7.25,-11 -8.43,-35.9 -16.89,-72.1 -24.12,-108.1 0,-5.6 0,-10.9 2.39,-13.71 2.42,-5.34 4.84,-8.14 9.66,-10.95 4.85,-3.7 10.87,-7.46 16.89,-10.88 -53.08,-402.4 -107.6,-808.22 -159.27,-1216.57 -52.09,-411.7 -106.18,-827.58 -158.07,-1245.58 -20.51,-15.61 -39.81,-30.87 -59.12,-45.86 -2.42,-3.42 -4.96,-6.43 -7.24,-9.72 -2.52,-3.56 -2.41,-6.57 -2.41,-9.38 0,-2.8 0,-5.61 0,-8.42 7.23,-35.59 15.69,-70.56 24.14,-105.61 0,-2.8 2.42,-7.8 7.24,-9.65 2.4,-2.19 7.23,-3.9 9.65,-3.42 127.89,26.97 255.82,53.59 384.91,79.06 2.42,0.4 7.28,3.96 9.65,7.18 2.49,3.36 4.82,9.04 7.24,12.46 7.24,36.89 15.7,74.4 24.13,111.5 0,1.57 0,3.42 0,5.68 0,2.46 0,5.27 -2.4,7.8 -2.42,4.66 -4.83,7.19 -7.25,9.38 -7.24,2.46 -13.28,4.93 -19.3,7.8 7.24,63.73 15.69,127.11 24.13,190.83 83.25,32.85 166.52,65.64 249.76,98.49 10.87,-78.78 22.93,-157.22 34.99,-234.7 -7.24,-4.99 -13.28,-9.65 -19.31,-14.03 -2.41,-3.15 -5.12,-5.75 -8.44,-9.38 -2.75,-3.01 -2.42,-5.95 -2.42,-8.76 0,-2.8 0,-5.27 0,-8.07 8.45,-33.47 16.89,-67.22 25.35,-100.62 0,-2.81 2.4,-7.81 7.23,-9.38 2.42,-2.53 7.26,-4.17 9.66,-3.76 127.91,21.49 255.8,43.53 384.91,64.06 2.39,0.34 7.31,3.63 9.66,6.5 2.46,3.09 4.82,8.49 7.23,11.57 7.24,35.32 15.69,70.64 24.14,105.96 0,1.5 0,3.42 0,5.27 0,2.53 -0.05,7.73 -2.42,9.72 -2.44,2.05 -4.82,4.65 -7.23,6.84 z M 7336,9167.63 c -76.04,-19.37 -150.85,-39.02 -225.67,-59.35 0,105.89 0,211.84 0,317.39 0,105.95 0,211.84 0,317.45 74.82,1.57 149.63,3.08 225.67,4.38 0,-193.43 0,-386.51 0,-579.87 z m 458.52,-1355.17 c -20.46,8 -39.83,16.22 -59.13,24.36 -27.79,167.15 -55.58,335.19 -82.07,503.29 -26.56,168.38 -53.11,337.1 -79.67,506.09 39.83,11.57 79.67,22.79 119.5,34.09 4.8,2.46 9.86,4.79 13.22,7.8 2.73,2.33 2.46,7.8 2.46,12.46 0,169.33 0,338.94 0,508.28 0,169.33 0,338.67 0,508.28 0,5 -2.46,10.34 -6.02,14.99 -64,64.07 -127.93,128.4 -190.63,193.4 -4.86,2.5 -9.72,5 -14.51,5 -254.62,0 -509.17,0 -763.81,-0.3 -4.8,0 -9.64,0 -12.05,-2.5 -2.4,-2.5 -4.82,-7.9 -7.24,-12.8 -8.45,-34.1 -15.69,-67.8 -22.93,-101.8 0,-4.5 0,-8.9 0,-13.17 2.4,-4.99 4.81,-7.53 9.66,-10.06 12.05,-6.23 24.13,-12.12 37.39,-18.07 0,-377.41 0,-754.48 0,-1131.21 0,-377.14 0,-754.14 0,-1131.28 -13.27,-7.74 -25.36,-15.61 -37.39,-23.41 -4.85,-3.08 -7.26,-5.95 -9.66,-9.03 0,-2.88 0,-5.34 0,-7.81 0,-2.53 0,-5.33 0,-7.8 7.24,-32.85 14.48,-65.64 22.93,-98.15 2.42,-5 4.81,-7.19 7.24,-9.38 2.39,-2.19 7.18,-3.83 12.05,-3.08 126.65,19.51 253.41,35.59 381.34,52.43 4.79,0.62 9.78,3.49 13.27,6.91 2.53,2.53 4.79,5.27 7.19,10.96 7.26,34.01 14.51,68.1 21.77,101.84 0,2.47 1.16,4.93 2.39,8.08 -1.23,0.96 -2.39,2.53 -2.39,4.38 -2.4,2.53 -4.86,7.19 -9.65,9.38 -13.28,3.76 -25.33,8.41 -37.45,13.14 0,157.77 0,315.81 0,473.58 0,158.11 0,316.15 0,474.54 33.82,9.99 68.79,20.05 103.84,30.32 24.09,-160.92 49.42,-321.15 73.58,-481.38 24.09,-159.69 49.42,-319.03 74.81,-478.03 -6.02,-3.43 -12.05,-6.5 -16.91,-10 -2.39,-2.46 -4.79,-7.8 -7.25,-10.61 -2.4,-2.8 -2.4,-7.8 -2.4,-12.79 7.26,-31.9 15.68,-63.73 24.1,-95.28 2.46,-4.73 4.92,-6.78 7.25,-9.11 2.53,-2.32 8.49,-3.9 13.28,-3.42 126.69,14.1 253.45,28.34 381.31,40.59 2.47,0.27 7.26,2.81 12.05,5.68 2.47,2.74 4.86,5.55 4.86,10.61 8.42,33.13 16.91,65.57 25.32,98.7 0,2.53 1.24,5 2.47,7.53 -1.23,1.23 -2.47,3.08 -2.47,4.65 -2.39,2.2 -4.78,7.19 -9.65,9.11 z m 871.19,301.43 c -98.98,-5.33 -197.88,-10.33 -295.62,-15.6 0,113.07 0,226.14 0,339.29 0,113.07 0,225.8 0,338.94 97.74,26.84 196.64,53.39 295.62,80.29 0,-124.02 0,-248.05 0,-371.8 0,-123.68 0,-247.43 0,-371.12 z m -295.62,1648.6 c 73.58,0.62 147.16,1.51 221.97,2.12 0,-184.6 0,-369.26 0,-553.87 -74.81,-16.22 -148.39,-32.78 -221.97,-49 0,199.93 0,400.48 0,600.75 z m 663.58,-962.56 c -42.23,39.36 -84.46,78.72 -125.46,118.75 14.51,3.43 28.96,6.85 44.63,10.61 2.4,2.2 7.25,4.73 9.65,7.19 2.4,2.47 4.86,7.19 4.86,9.65 0,163.45 0,327.11 0,490.49 0,163.38 0,327.38 0,490.83 0,4.92 -2.46,9.99 -7.26,12.11 -63.92,61.84 -127.85,124.04 -191.85,186.24 -2.4,4.7 -7.25,7.5 -12.05,7.5 -255.78,0 -511.63,0 -766.25,0 -2.4,0 -7.19,-2.8 -9.65,-5.3 -4.79,-2.5 -7.26,-7.2 -7.26,-9.7 -8.42,-31.9 -16.84,-64 -25.32,-95.9 0,-5 0,-9.7 0,-14.7 2.46,-2.5 8.48,-4.7 10.88,-7.2 12.05,-6.52 24.16,-13.09 36.21,-19.67 0,-355.23 0,-710.4 0,-1065.29 0,-355.24 0,-710.41 0,-1065.37 -12.12,-7.73 -24.16,-15.26 -36.21,-23.06 -2.4,-2.54 -5.95,-5.41 -8.42,-8.15 -2.4,-2.6 -2.46,-5 -2.46,-7.19 0,-2.46 0,-4.99 0,-7.53 8.48,-31.21 16.9,-62.15 25.32,-93.7 0,-2.19 2.47,-6.91 7.26,-9.04 2.46,-2.19 7.25,-3.96 9.65,-3.76 278.78,21.97 557.49,41.55 837.44,57.77 4.86,0.27 9.65,2.6 14.51,7.53 63.86,65.3 127.99,129.77 191.78,194.93 2.54,2.61 4.87,7.46 4.87,12.53 0,135.87 0,271.73 0,407.67 0,135.86 0,271.8 0,407.66 0,4.66 -2.47,9.38 -4.87,14.1 z m 555.04,971.25 c 172.62,0.35 346.33,0.96 520.09,0.96 14.5,-27.45 29,-55.3 43.4,-82.47 2.4,-2.47 4.9,-4.66 9.7,-7.19 2.4,-2.19 7.2,-2.19 12,-2.19 31.4,7.8 64,15.6 96.6,23.75 2.4,2.19 7.3,4.58 9.7,6.84 2.4,2.4 4.8,7.19 4.8,11.91 0,130.26 0,260.85 0,391.41 0,4.8 -2.5,9.4 -7.2,11.6 -2.5,4.7 -7.3,7.5 -13.3,7.5 -351.15,0 -702.28,0 -1052.25,0 -4.79,0 -9.65,-2.7 -12.05,-5 -2.46,-2.4 -4.79,-7.2 -4.79,-9.7 -8.48,-30.9 -16.9,-61.9 -25.39,-92.8 0,-2.2 0,-4.7 0,-6.8 0,-2.6 0,-5 0,-7.2 2.46,-2.6 4.86,-4.8 9.65,-7.2 12.12,-6.31 24.16,-12.54 37.44,-19.11 0,-344.29 0,-688.84 0,-1032.79 0,-344.28 0,-688.56 0,-1032.85 -13.28,-6.5 -25.39,-13.42 -37.44,-20.26 -4.79,-2.53 -7.19,-5 -9.65,-7.53 0,-4.65 0,-9.38 0,-14.03 8.49,-30.67 16.91,-61.26 25.39,-91.86 0,-2.53 2.4,-7.18 4.79,-9.37 2.4,-2.19 7.26,-4.25 12.05,-4.11 349.97,11.09 701.1,16.97 1052.25,19.1 6,0 10.8,2.46 13.3,7.18 4.7,2.19 7.2,6.85 7.2,11.57 0,130.6 0,260.85 0,391.45 0,4.65 -2.4,9.51 -4.8,11.84 -2.4,2.32 -7.3,4.72 -9.7,6.91 -32.6,7.46 -65.2,15.33 -96.6,23.13 -4.8,0 -9.6,0 -12,-2.26 -4.8,-2.46 -7.3,-4.92 -9.7,-9.65 -14.5,-26.83 -28.9,-53.38 -43.4,-80.28 -173.76,-0.96 -347.47,-3.15 -520.09,-5.96 0,112.8 0,225.6 0,338.06 0,112.73 0,225.53 0,338.33 121.9,25.32 243.8,49.96 365.64,74.67 2.39,-4.1 4.86,-8.14 7.25,-11.91 2.4,-4.65 4.79,-7.18 7.26,-9.37 4.79,0 9.65,0 14.44,0 31.4,7.18 62.8,14.1 95.3,21.56 2.4,2.19 7.4,4.58 9.7,6.91 2.5,2.39 4.9,7.19 4.9,11.84 0,122.45 0,245.24 0,368.04 0,4.65 -2.6,9.24 -4.9,11.56 -2.5,2.4 -7.3,5 -9.7,7.19 -32.5,7.8 -63.9,15.61 -95.3,23.41 -4.79,0 -9.65,0 -12.05,-2.47 -4.86,-2.19 -7.12,-4.85 -9.65,-9.37 -7.05,-12.66 -13.28,-25.33 -19.3,-37.78 -118.27,-22.52 -236.55,-45.31 -353.59,-68.45 0,187.75 0,375.5 0,563.24 z m 1486.59,-545.1 c -74.8,-14.38 -149.6,-28.75 -224.4,-43.47 0,98.43 0,196.51 0,294.67 0,98.08 0,196.16 0,294.25 74.8,-0.28 149.6,-0.62 224.4,-0.89 0,-181.52 0,-363.04 0,-544.56 z m 458.5,-1333.68 c -20.5,10.34 -39.8,20.95 -59.1,31.28 -27.7,164.27 -55.5,328.61 -82.1,492.34 -26.5,163.65 -53,327.38 -79.6,490.48 39.8,8.08 79.6,16.22 120.7,24.03 4.8,2.19 9.6,4.72 12,6.91 2.4,2.12 2.4,6.85 2.4,11.57 0,162.76 0,325.46 0,488.29 0,162.77 0,325.53 0,488.57 0,4.73 -2.4,9.65 -4.8,14.38 -63.9,61.85 -127.9,123.65 -191.8,185.55 -4.9,2.5 -9.7,4.7 -14.5,4.7 -254.6,0 -509.2,0 -763.8,0 -4.8,0 -9.7,0.1 -12.1,-2.2 -2.4,-2.4 -4.8,-7.2 -7.2,-11.9 -8.5,-30.6 -15.7,-61.2 -23,-91.8 0,-4.1 0,-8.1 0,-11.9 3.7,-4.7 6.1,-6.9 10.9,-9.3 12.1,-5.66 24.2,-11.34 36.2,-16.61 0,-342.1 0,-684.19 0,-1025.94 0,-342.1 0,-684.19 0,-1025.94 -12.1,-5.62 -24.1,-11.23 -36.2,-16.57 -4.8,-2.53 -7.2,-4.72 -10.9,-7.18 0,-2.19 0,-4.73 0,-6.85 0,-2.53 0,-4.72 0,-7.19 7.3,-30.66 14.5,-61.26 23,-92.19 2.4,-4.66 4.8,-6.98 7.2,-9.38 2.4,-2.26 7.3,-4.31 12.1,-4.38 126.7,-0.89 254.6,-2.6 382.5,-5 4.8,-0.07 9.6,1.99 12.1,4.38 2.4,2.26 4.8,4.66 7.2,9.04 7.3,30.66 14.5,61.26 21.7,91.85 0,2.2 1.2,4.73 2.5,7.19 -1.3,1.23 -2.5,2.81 -2.5,4.72 -2.4,2.19 -4.8,6.85 -9.6,9.66 -12.1,5.33 -24.1,11.29 -36.2,17.24 0,146.48 0,292.68 0,439.22 0,146.54 0,293.36 0,439.84 33.8,6.91 67.6,13.48 102.6,20.33 24.1,-152.43 49.5,-304.32 73.5,-456.4 24.3,-152.77 50.8,-305.55 76.1,-458.04 -6,-2.47 -12.1,-4.66 -18.1,-6.85 -2.5,-2.19 -4.8,-7.05 -7.2,-9.38 -2.4,-2.05 -2.5,-6.57 -2.5,-11.22 8.5,-31.28 16.9,-62.49 25.4,-93.43 2.4,-4.66 4.8,-7.19 7.2,-9.72 2.4,-2.4 7.2,-4.79 12.1,-4.93 126.7,-3.9 253.4,-8.28 381.3,-14.1 2.4,-0.07 8.4,1.85 13.2,4.11 2.5,1.85 4.9,4.31 4.9,9.03 7.2,30.6 15.6,61.54 24.1,91.86 0,2.46 1.2,4.65 2.4,7.18 -1.2,1.24 -2.4,3.15 -2.4,4.66 -2.4,2.81 -4.8,7.6 -9.6,9.99 z m 1148.7,633.27 c 0,2.46 -2.4,7.18 -4.8,9.99 -111,154.01 -223,306.43 -333,457.02 -109.6,149.89 -220.8,298.08 -330.7,445.51 0,109.38 0,218.69 0,328.34 90.6,-0.96 181.1,-1.92 271.6,-3.15 0,-41.55 0,-82.75 0,-124.02 0,-5 2.4,-9.65 4.7,-14.65 4.9,-2.53 9.8,-4.93 14.6,-5 111,-1.78 222,-3.9 333,-5.95 4.8,-0.07 9.6,2.19 14.5,4.65 2.4,4.72 4.8,9.72 4.8,14.38 0,152.15 0,304.03 0,455.81 0,5 0,10 -2.4,12.5 -2.4,2.5 -7.3,5 -12.1,7.2 -32.6,8.1 -63.9,16.5 -95.3,25 -4.8,0 -9.6,-0.1 -12.1,-2.8 -2.3,-2.6 -7.2,-5 -9.6,-7.2 -7.3,-14.1 -13.3,-27.8 -19.3,-41.8 -15.7,15.6 -30.2,30.9 -44.7,46.5 -4.8,2.5 -9.6,5.3 -14.5,5.3 -199.1,0 -398.1,0 -597.2,0 -4.8,0 -9.7,-2.8 -13.3,-5.3 -65.2,-62.2 -129.1,-124.4 -193.1,-186.25 -2.4,-4.65 -4.8,-9.38 -4.8,-14.3 0,-101.58 0,-202.81 0,-303.7 0,-101.23 0,-202.46 0,-303.69 0,-2.47 2.4,-7.19 4.8,-12.12 111,-145.31 222.2,-291.72 333.1,-439.29 111,-147.91 222,-297.74 332.9,-448.94 0,-110.26 0,-220.87 0,-330.8 -98.9,6.51 -197.8,12.18 -295.6,17.46 0,40.93 0,82.2 0,123.4 0,4.66 -2.4,9.38 -7.2,12.19 -2.4,4.99 -8.4,7.6 -13.2,7.8 -112.3,5.34 -224.5,10.88 -335.5,14.99 -4.8,0.21 -9.7,-2.19 -14.5,-6.5 -2.4,-2.19 -4.8,-6.92 -4.8,-11.57 0,-148.46 0,-296.78 0,-444.9 0,-2.46 2.5,-7.12 4.8,-9.65 2.5,-2.74 4.9,-5.34 9.7,-7.87 31.4,-9.65 62.7,-19.03 95.3,-28.41 1.2,0 2.4,0.14 4.9,0 3.5,-0.2 6,-0.34 10.8,1.85 2.4,2.19 4.8,4.38 7.2,6.91 6,12.19 12.1,24.64 19.3,36.83 14.5,-15.34 30.2,-30.6 45.9,-45.93 3.6,-2.47 8.5,-5.27 13.3,-5.61 206.3,-12.73 413.9,-27.59 621.4,-43.74 4.8,-0.34 9.6,1.92 14.4,3.77 64,58.11 128,116.49 191.9,174.67 2.4,4.65 4.8,9.65 4.8,14.65 0,104.31 0,208.69 0,313 0,104.04 0,208.69 0,313.42 z m 1263.4,-879.13 c 0,2.81 1.2,5.34 2.4,7.19 0,2.81 -2.4,5.89 -2.4,8.42 -2.4,3.15 -4.8,6.3 -9.7,9.38 -13.3,8.76 -25.3,17.52 -37.4,26.28 0,378.64 0,757.56 0,1136.55 0,378.64 0,757.56 0,1136.55 12.1,6.84 24.1,13.69 37.4,20.6 4.9,2.47 7.3,5.27 9.7,7.8 0,2.49 1.2,5.29 2.4,7.79 -1.2,2.5 -2.4,5.4 -2.4,7.8 -8.5,34.1 -16.9,68.4 -24.2,102.5 0,2.5 -2.4,7.9 -4.8,10.3 -2.4,2.5 -7.2,5.6 -12,5.6 -128,0 -255.9,0 -382.6,0 -4.8,0 -9.6,-2.8 -12,-5.6 -2.4,-2.6 -4.9,-7.5 -7.3,-10 -8.4,-33.4 -16.9,-66.5 -25.3,-99.6 0,-5.4 0,-10.4 2.4,-12.9 2.4,-5 4.8,-7.46 7.2,-10.26 13.3,-6.92 26.6,-13.76 39.8,-20.95 0,-132.79 0,-265.57 0,-398.29 0,-132.78 0,-265.57 0,-398.63 -100.1,-15.33 -200.3,-30.32 -299.2,-45.93 0,140.87 0,281.8 0,422.66 0,140.93 0,281.52 0,422.72 13.2,6.85 26.5,13.42 39.8,19.99 2.4,2.46 4.9,4.99 7.2,9.99 2.4,2.5 2.4,7.5 2.4,12.8 -8.4,32.8 -16.9,65.6 -24,98.8 -2.5,2.4 -4.9,7.4 -7.3,9.9 -2.4,2.5 -8.5,5.3 -13.3,5.3 -127.9,0 -254.6,0 -381.3,0 -2.4,0 -7.3,-2.8 -9.6,-5.3 -4.8,-2.5 -7.3,-7.5 -7.3,-9.9 -8.4,-32.3 -16.9,-64.4 -25.3,-96.6 0,-2.5 0,-5 0,-7.5 0,-2.5 0,-4.7 0,-7.2 2.4,-2.5 4.8,-5 9.6,-7.49 12.1,-6.84 24.2,-13.41 37.4,-20.32 0,-359.55 0,-719.17 0,-1078.44 0,-359.55 0,-719.17 0,-1078.44 -13.3,-5.61 -25.3,-11.23 -37.4,-16.84 -4.8,-1.92 -7.2,-4.38 -9.6,-6.23 0,-4.99 0,-9.99 0,-15.06 8.4,-33.06 16.9,-65.91 25.3,-99.04 0,-2.46 2.4,-7.46 7.3,-10.61 2.3,-2.8 7.2,-5.34 9.6,-5.61 126.6,-13.48 253.4,-27.72 381.3,-42.16 4.8,-0.55 11,1.36 13.3,3.42 2.5,2.33 4.8,7.19 7.3,9.38 7.1,32.17 15.6,64.06 24,96.23 0,5 0,10 -2.4,15.33 -2.3,2.47 -4.8,5.27 -7.2,8.15 -13.3,8.08 -26.6,16.5 -39.8,24.3 0,155.92 0,312.11 0,468.03 0,155.85 0,312.12 0,468.31 98.9,14.38 199.1,28.41 299.2,42.44 0,-169.34 0,-338.67 0,-507.67 0,-168.99 0,-337.98 0,-507.05 -13.3,-4.99 -26.5,-10.26 -39.8,-15.26 -2.4,-2.19 -4.8,-4.72 -7.2,-6.91 -2.4,-4.73 -2.4,-9.65 -2.4,-14.99 8.4,-34.36 16.9,-68.45 25.3,-103.42 2.4,-2.47 4.9,-7.81 7.3,-10.61 2.4,-2.81 7.2,-5.96 12,-6.58 126.7,-16.56 254.6,-35.72 382.6,-54.68 4.8,-0.69 9.7,0.75 12,2.8 2.5,2.33 4.8,7.53 4.8,10.07 7.3,33.05 15.7,65.56 24.2,98.69 z m 813.2,159.01 c -98.9,16.28 -197.8,32.17 -296.8,48.11 0,310.54 0,621.7 0,932.24 0,310.54 0,621.7 0,932.51 99,-2.8 197.9,-5.88 296.8,-8.69 0,-317.45 0,-635.18 0,-952.29 0,-317.05 0,-634.78 0,-951.82 z m 366.8,2097.19 c -64,74.4 -127.9,148.46 -190.6,221.86 -4.8,5.6 -9.6,5.6 -14.5,5.6 -207.5,0 -415,0 -622.6,0 -4.8,0 -9.7,0 -12,-5.4 -64,-69.3 -127.9,-138.15 -190.7,-206.12 -4.7,-5.13 -7.3,-10.6 -7.3,-15.94 0,-361.74 0,-723.21 0,-1084.67 0,-361.12 0,-722.59 0,-1084.05 0,-5.62 2.4,-11.23 7.3,-14.65 62.7,-79.67 126.7,-160.3 190.7,-241.2 2.3,-3.43 7.2,-6.64 12,-7.53 207.5,-36.9 415.1,-76.6 622.6,-118.69 4.8,-0.96 9.7,0.62 14.5,2.19 62.7,61.26 126.6,122.18 190.6,184.33 2.4,2.46 4.8,7.8 4.8,13.75 0,388.64 0,777.55 0,1166.53 0,388.57 0,777.55 0,1166.54 0,5.61 -2.4,11.49 -4.8,17.45 z m 575.6,-226.15 c 73.6,-2.87 148.4,-5.68 223.2,-8.83 0,-232.99 0,-466.05 0,-699.11 -74.8,-10.95 -149.6,-21.56 -223.2,-31.89 0,246.47 0,493.29 0,739.76 z m 590,201.78 c -63.9,82.48 -127.8,164.33 -190.6,245.23 -2.4,3.1 -7.3,6.2 -12.1,6.2 -255.7,0 -511.6,0 -766.1,0 -2.5,0 -7.3,0 -9.8,-2.8 -6,-2.8 -8.4,-8.4 -8.4,-14.3 -8.4,-37.5 -16.9,-75 -24.1,-112.2 0,-4.95 0,-9.67 0,-14.33 2.4,-4.1 6,-7.87 9.7,-11.56 12,-7.19 24.1,-14.1 37.3,-20.95 0,-418.96 0,-837.85 0,-1256.19 0,-418.62 0,-837.58 0,-1256.2 -13.2,-4.65 -25.3,-9.99 -37.3,-14.99 -2.5,-2.19 -5,-4.58 -7.3,-6.91 -2.4,-2.4 -2.4,-5.27 -2.4,-8.08 0,-2.8 0,-5.95 0,-8.76 7.2,-39.01 15.7,-78.1 24.1,-117.79 0,-5.89 2.4,-9.04 8.4,-13.42 2.5,-3.42 7.3,-7.25 9.8,-7.8 127.8,-30.05 255.7,-60.58 383.7,-93.43 2.4,-0.55 7.2,0.82 9.6,3.15 2.5,2.39 4.8,4.65 8.4,9.99 7.3,36.82 15.7,73.72 24.2,110.54 0,1.58 0,3.77 0,5.96 0,2.8 0,5.95 -2.5,9.37 -2.4,6.57 -4.8,10.34 -7.2,13.76 -13.2,11.23 -25.3,22.18 -37.4,33.13 0,184.33 0,368.65 0,552.98 0,184.32 0,369.26 0,553.52 194.3,28.48 388.6,56.88 582.8,87.2 2.4,-0.62 7.4,2.06 9.7,4.66 2.5,3.01 6,8.76 6,15.06 0,214.92 0,429.84 0,644.76 0,214.99 0,429.91 0,645.17 0,6.23 -3.6,12.8 -8.4,19.03 z M 5318.51,8531.28 c -42.23,43.74 -84.46,86.86 -125.47,131.49 14.47,5.33 28.94,10.95 44.63,16.9 2.41,3.15 7.37,6.44 9.66,9.38 2.51,3.28 4.83,9.38 4.83,12.18 0,197.13 0,394.87 0,591.72 0,197.12 0,394.87 0,592.34 0,5.88 -2.42,11.56 -7.26,14.37 -63.94,73.71 -127.9,148.64 -191.83,224.64 -2.41,5.5 -7.26,9 -12.08,9 -255.79,0 -511.61,0 -766.2,0 -2.42,0 -7.25,-3.5 -9.66,-6.5 -4.82,-3.2 -7.24,-9.4 -7.24,-12.6 -8.43,-40.9 -16.89,-81.8 -24.12,-122.69 0,-6.3 0,-12.52 0,-18.75 2.4,-3.15 7.23,-6.3 9.65,-9.38 12.05,-8.14 24.12,-16.56 36.19,-24.71 0,-453.93 0,-907.8 0,-1361.46 0,-453.6 0,-907.53 0,-1361.19 -12.08,-11.5 -24.16,-23.41 -36.19,-34.98 -2.42,-4.04 -4.8,-7.53 -7.25,-11.22 -2.35,-3.5 -2.4,-6.58 -2.4,-9.72 0,-3.08 0,-6.23 0,-9.31 7.23,-39.7 15.68,-77.83 24.12,-116.57 0,-3.14 2.42,-8.76 7.24,-10.33 2.41,-2.47 7.26,-4.11 9.66,-3.43 278.73,78.04 557.43,151.2 837.39,219.92 4.79,1.17 9.76,4.93 14.48,11.57 64.02,89.94 128.06,179.54 191.85,268.1 2.57,3.56 4.84,10 4.84,15.88 0,163.11 0,326.49 0,489.53 0,163.45 0,326.49 0,489.6 0,5.89 -2.42,11.22 -4.84,16.22 v 0" /></g><g
         transform="scale(1.07048)"
         id="g82"><path
           id="path84"
           style="fill:#fcf8ed;fill-opacity:1;fill-rule:evenodd;stroke:none"
           d="m 15522,8805.97 c 35.8,-13.45 53.8,-53.34 40.4,-89.03 -13.5,-35.78 -53.3,-53.8 -89,-40.35 -35.8,13.45 -53.8,53.34 -40.4,89.02 13.5,35.78 53.3,53.81 89,40.36 z m -212.7,-696.32 c -207.1,-821.42 -696.4,-1421.61 -1204.8,-1954.83 -157.8,-165.54 -555.6,-572.27 -253.3,-773.67 -145.7,191.41 100.9,489.22 337.2,734.43 549.8,570.68 961.6,1197.6 1120.9,1994.07 z m -1398.7,-310.33 c -364.4,-193.09 -1644,-872.04 -1978.7,-939.86 0,0 1113.4,561.43 1978.7,939.86 z m 233.4,408.41 c 28.8,-11.86 42.5,-44.84 30.6,-73.42 -11.9,-28.78 -44.8,-42.51 -73.4,-30.64 -28.8,11.95 -42.4,44.84 -30.7,73.51 12,28.78 44.9,42.41 73.5,30.55 z m 2013.3,960.5 c 76.9,-21.39 137.7,-98.64 139.7,-184.12 3,-127.04 -96.1,-247.83 -183.7,-329.38 -58.7,-54.47 -125.9,-99.58 -198,-134.33 61.9,-532.57 -184.4,-1285.97 -375.8,-1750.44 -200.8,-486.88 -596.5,-1269.24 -1029.6,-1584.43 -214.4,-156 -570.2,-198.32 -792.9,-35.5 221.2,-104.71 522.9,-55.86 713.3,82.58 433.1,315.28 828.9,1097.64 1029.6,1584.53 191.4,464.37 437.7,1217.87 375.8,1750.34 72.1,34.84 139.3,79.87 198,134.42 87.6,81.46 186.7,202.34 183.7,329.39 -1.3,52.31 -24.5,101.64 -60.1,136.94 z m -507,-171.13 c 30.5,-11.77 58.7,-29.33 84.1,-50.82 -8.1,-3.92 -16.4,-7.47 -24.8,-10.56 -17.6,22.61 -37.4,43.54 -59.3,61.38 z m -554.8,-821.41 -626.1,-293.98 -133.9,-331.53 -2050.6,-1062.8 c -83.7,-43.34 -177,-56.8 -269.2,-37.37 -62.5,13.18 -120.4,40.36 -171.1,77.63 29.1,-13.45 59.6,-23.82 91.5,-30.45 92.2,-19.43 185.5,-6.07 269.1,37.27 l 2050.7,1062.89 133.9,331.53 730.9,343.22 c -7.9,-32.42 -16.3,-64.56 -25.2,-96.41 z m 186.3,300.24 C 15075,7288.42 14349.2,6661.7 13821.6,6049.35 c -642.5,-745.74 133.8,-1018.7 540.4,-722.86 660.3,480.54 1514.9,2464.89 1345.1,3313.29 68.4,23.73 161.9,67.64 247.5,147.13 112.6,104.82 148,188.7 146.8,241.67 -1.1,44.46 -45.5,91.83 -86.5,71.27 0,0 -97,-270.99 -360.3,-294.63 -83.5,173.57 -267.4,211.96 -328.6,-39.98 -67.5,7.19 -190.2,1.68 -363.3,-79.31 l -1049.1,-491.28 -101.2,25.69 -2076.3,-1028.7 c -201.2,-323.12 130,-702.21 415.7,-554.14 l 2012.5,1043.08 134.9,333.96 982.6,461.39 v 0" /></g><g
         transform="scale(1.20956)"
         id="g86"><path
           id="path88"
           style="fill:#fcf8ed;fill-opacity:1;fill-rule:evenodd;stroke:none"
           d="m 9110.55,7104.95 c -91.93,0 -135.67,-58.69 -135.67,-153.19 0,-172.54 204.87,-185.69 204.87,-322.27 0,-55.14 -22.74,-87.55 -71.76,-87.55 -49.03,0 -71.85,32.41 -71.85,87.55 v 38.53 h -63.9 v -34.97 c 0,-92.84 43.81,-153.28 137.49,-153.28 93.67,0 138.31,60.44 138.31,153.28 0,172.46 -205.78,185.6 -205.78,323.01 0,54.31 21.08,86.72 70.03,86.72 49.11,0 70.1,-32.41 70.1,-87.55 v -20.17 h 64.82 v 16.62 c 0,92.84 -43.81,153.27 -136.66,153.27 z m 286.3,-619.06 h 68.29 v 550.78 h 112.94 v 62.08 h -294.16 v -62.08 h 112.93 z m 371.29,62.17 h -74.4 v 488.61 h 73.5 c 49.93,0 73.58,-30.68 73.58,-86.73 v -315.16 c 0,-56.05 -23.65,-86.72 -72.68,-86.72 z m 0.83,550.69 h -143.52 v -612.86 h 143.52 c 95.49,0 139.22,57.79 139.22,151.46 v 309.12 c 0,94.49 -43.73,152.28 -139.22,152.28 z m 260.13,-527.96 h -65.76 v -84.9 h 65.76 z m 4949.8,534.16 c -94.6,0 -137.5,-62.25 -137.5,-155.92 v -49.85 h 63.9 v 54.32 c 0,54.23 21.9,90.19 71.8,90.19 50.8,0 71.8,-33.32 71.8,-96.39 0,-172.46 -207.5,-210.99 -207.5,-408.91 v -52.5 h 268.8 v 62.17 h -201.4 v 9.67 c 0,140.88 208.4,207.51 208.4,392.21 0,93.75 -42.8,155.01 -138.3,155.01 z m 263.5,-474.55 v 323.92 c 0,56.05 23.7,89.37 72.7,89.37 49.9,0 72.7,-33.4 72.7,-89.37 V 6630.4 c 0,-55.14 -22.8,-88.46 -72.7,-88.46 -49,0 -72.7,33.32 -72.7,88.46 z m -67.4,320.45 v -316.07 c 0,-93.67 46.4,-155.01 140.1,-155.01 94.6,0 141,61.26 141,155.01 v 316.07 c 0,93.67 -46.4,154.1 -141,154.1 -93.7,0 -140.1,-60.51 -140.1,-154.1 z m 483.3,154.1 c -94.5,0 -137.4,-62.25 -137.4,-155.92 v -49.85 h 63.9 v 54.32 c 0,54.23 21.8,90.19 71.7,90.19 50.8,0 71.9,-33.32 71.9,-96.39 0,-172.46 -207.6,-210.99 -207.6,-408.91 v -52.5 h 268.9 v 62.17 h -201.4 v 9.67 c 0,140.88 208.4,207.51 208.4,392.21 0,93.75 -42.9,155.01 -138.4,155.01 z m 338.9,0 c -94.6,0 -137.5,-62.25 -137.5,-155.92 v -49.85 h 63.9 v 54.32 c 0,54.23 21.9,90.19 71.8,90.19 50.8,0 71.8,-33.32 71.8,-96.39 0,-172.46 -207.5,-210.99 -207.5,-408.91 v -52.5 h 268.8 v 62.17 h -201.4 v 9.67 c 0,140.88 208.4,207.51 208.4,392.21 0,93.75 -42.9,155.01 -138.3,155.01 z m -6702.86,-758.78 792.26,-38.2 -792.26,-38.19 -792.19,38.19 z m 6213.36,0 792.3,-38.2 -792.3,-38.19 -792.2,38.19 z m 0,968.69 792.3,-38.19 -792.3,-38.2 -792.2,38.2 z m -6213.36,0 792.26,-38.19 -792.26,-38.2 -792.19,38.2 z m -409.65,-487.44 h -149.73 v 209.25 h 183.87 v 62.17 h -252.16 v -612.95 h 252.16 v 62.17 h -183.87 v 218.01 h 149.73 v 61.26 0.09" /></g></g></g></svg>